<svg xmlns="http://www.w3.org/2000/svg" xmlns:xlink="http://www.w3.org/1999/xlink" viewBox="0 0 512 512" width="512" height="512" preserveAspectRatio="xMidYMid meet" style="width: 100%; height: 100%; transform: translate3d(0px, 0px, 0px); content-visibility: visible;"><defs><clipPath id="__lottie_element_209"><rect width="512" height="512" x="0" y="0"></rect></clipPath></defs><g clip-path="url(#__lottie_element_209)"><g transform="matrix(1,0,0,1,60,259)" opacity="1" style="display: block;"><g opacity="1" transform="matrix(1,0,0,1,0,0)"><path stroke-linecap="round" stroke-linejoin="miter" fill-opacity="0" stroke-miterlimit="4" stroke="rgb(57,164,255)" stroke-opacity="1" stroke-width="25" d=" M-31.662857055664062,-46.48616027832031 C-31.662857055664062,-46.48616027832031 -31.662857055664062,40.070682525634766 -31.662857055664062,40.070682525634766"></path></g></g><g transform="matrix(1,0,0,1,125,259)" opacity="1" style="display: block;"><g opacity="1" transform="matrix(1,0,0,1,0,0)"><path stroke-linecap="round" stroke-linejoin="miter" fill-opacity="0" stroke-miterlimit="4" stroke="rgb(57,164,255)" stroke-opacity="1" stroke-width="25" d=" M-31.19463539123535,-81.76968383789062 C-31.19463539123535,-81.76968383789062 -31.19463539123535,75.31675720214844 -31.19463539123535,75.31675720214844"></path></g></g><g transform="matrix(1,0,0,1,191,259)" opacity="1" style="display: block;"><g opacity="1" transform="matrix(1,0,0,1,0,0)"><path stroke-linecap="round" stroke-linejoin="miter" fill-opacity="0" stroke-miterlimit="4" stroke="rgb(57,164,255)" stroke-opacity="1" stroke-width="25" d=" M-31.256216049194336,-132.51686096191406 C-31.256216049194336,-132.51686096191406 -31.256216049194336,126.11614990234375 -31.256216049194336,126.11614990234375"></path></g></g><g transform="matrix(1,0,0,1,256,259)" opacity="1" style="display: block;"><g opacity="1" transform="matrix(1,0,0,1,0,0)"><path stroke-linecap="round" stroke-linejoin="miter" fill-opacity="0" stroke-miterlimit="4" stroke="rgb(57,164,255)" stroke-opacity="1" stroke-width="25" d=" M-31.5,-24.363611221313477 C-31.5,-24.363611221313477 -31.5,12.020950317382812 -31.5,12.020950317382812"></path></g></g><g transform="matrix(1,0,0,1,321,259)" opacity="1" style="display: block;"><g opacity="1" transform="matrix(1,0,0,1,0,0)"><path stroke-linecap="round" stroke-linejoin="miter" fill-opacity="0" stroke-miterlimit="4" stroke="rgb(128,197,255)" stroke-opacity="1" stroke-width="25" d=" M-31.5,-99.91203308105469 C-31.5,-99.91203308105469 -31.5,93.41203308105469 -31.5,93.41203308105469"></path></g></g><g transform="matrix(1,0,0,1,386,259)" opacity="1" style="display: block;"><g opacity="1" transform="matrix(1,0,0,1,0,0)"><path stroke-linecap="round" stroke-linejoin="miter" fill-opacity="0" stroke-miterlimit="4" stroke="rgb(128,197,255)" stroke-opacity="1" stroke-width="25" d=" M-31.51003646850586,-190.20687866210938 C-31.51003646850586,-190.20687866210938 -31.51003646850586,184.45687866210938 -31.51003646850586,184.45687866210938"></path></g></g><g transform="matrix(1,0,0,1,451,259)" opacity="1" style="display: block;"><g opacity="1" transform="matrix(1,0,0,1,0,0)"><path stroke-linecap="round" stroke-linejoin="miter" fill-opacity="0" stroke-miterlimit="4" stroke="rgb(128,197,255)" stroke-opacity="1" stroke-width="25" d=" M-31.260480880737305,-64.90251922607422 C-31.260480880737305,-64.90251922607422 -31.260480880737305,58.125709533691406 -31.260480880737305,58.125709533691406"></path></g></g><g transform="matrix(1,0,0,1,516,259)" opacity="1" style="display: block;"><g opacity="1" transform="matrix(1,0,0,1,0,0)"><path stroke-linecap="round" stroke-linejoin="miter" fill-opacity="0" stroke-miterlimit="4" stroke="rgb(128,197,255)" stroke-opacity="1" stroke-width="25" d=" M-31.347084045410156,-125.92681121826172 C-31.347084045410156,-125.92681121826172 -31.347084045410156,119.49144744873047 -31.347084045410156,119.49144744873047"></path></g></g></g></svg>